<mxfile host="app.diagrams.net" agent="Mozilla/5.0 (Windows NT 10.0; Win64; x64) AppleWebKit/537.36 (KHTML, like Gecko) Chrome/128.0.0.0 Safari/537.36" version="24.7.12">
  <diagram name="Page-1" id="3z8vgLrlJ4sNiiNNLieU">
    <mxGraphModel dx="1434" dy="746" grid="1" gridSize="10" guides="1" tooltips="1" connect="1" arrows="1" fold="1" page="1" pageScale="1" pageWidth="827" pageHeight="1169" math="0" shadow="0">
      <root>
        <mxCell id="0" />
        <mxCell id="1" parent="0" />
        <mxCell id="K2G1BswbU_Dy1n3_DHak-3" value="" style="edgeStyle=orthogonalEdgeStyle;rounded=0;orthogonalLoop=1;jettySize=auto;html=1;" edge="1" parent="1" source="K2G1BswbU_Dy1n3_DHak-1" target="K2G1BswbU_Dy1n3_DHak-2">
          <mxGeometry relative="1" as="geometry" />
        </mxCell>
        <mxCell id="K2G1BswbU_Dy1n3_DHak-1" value="Idea" style="ellipse;whiteSpace=wrap;html=1;" vertex="1" parent="1">
          <mxGeometry x="250" y="90" width="120" height="80" as="geometry" />
        </mxCell>
        <mxCell id="K2G1BswbU_Dy1n3_DHak-5" value="" style="edgeStyle=orthogonalEdgeStyle;rounded=0;orthogonalLoop=1;jettySize=auto;html=1;" edge="1" parent="1" source="K2G1BswbU_Dy1n3_DHak-2" target="K2G1BswbU_Dy1n3_DHak-4">
          <mxGeometry relative="1" as="geometry" />
        </mxCell>
        <mxCell id="K2G1BswbU_Dy1n3_DHak-2" value="Design" style="ellipse;whiteSpace=wrap;html=1;" vertex="1" parent="1">
          <mxGeometry x="450" y="90" width="120" height="80" as="geometry" />
        </mxCell>
        <mxCell id="K2G1BswbU_Dy1n3_DHak-4" value="Implement" style="ellipse;whiteSpace=wrap;html=1;" vertex="1" parent="1">
          <mxGeometry x="450" y="250" width="120" height="80" as="geometry" />
        </mxCell>
      </root>
    </mxGraphModel>
  </diagram>
</mxfile>
